<svg xmlns="http://www.w3.org/2000/svg" viewBox="0 0 32 32" fill="none">
  <circle cx="16" cy="16" r="16" fill="#7d4a24"/>
  <circle cx="16" cy="16" r="14" fill="#3a1e0e"/>
  <!-- Stylised falcon head silhouette -->
  <path d="M16 6 C18 6 21 8 21 11 C21 13 20 14 19 15 L22 20 L19 19 L18 22 L16 18 L14 22 L13 19 L10 20 L13 15 C12 14 11 13 11 11 C11 8 14 6 16 6 Z" fill="#c07838"/>
  <path d="M16 8 C17.5 8 19 9.5 19 11 C19 12.5 18 13.5 17 14 L19 18 L17.5 17.5 L17 20 L16 16.5 L15 20 L14.5 17.5 L13 18 L15 14 C14 13.5 13 12.5 13 11 C13 9.5 14.5 8 16 8 Z" fill="#d4922a"/>
  <circle cx="18" cy="11" r="1" fill="#1a0c08"/>
</svg>
